<svg xmlns="http://www.w3.org/2000/svg" xmlns:xlink="http://www.w3.org/1999/xlink" version="1.0" id="Ebene_1" x="0px" y="0px" width="312.543px" height="42.492px" viewBox="0 0 312.543 42.492" enable-background="new 0 0 312.543 42.492" xml:space="preserve">
<g>
	<g fill="#FFFFFF">
		<polygon points="109.494,32.998 116.412,0 141.877,0 141.05,3.728 120.065,3.728 117.854,14.066 138.899,14.066 138.072,17.795     117.084,17.795 114.683,29.27 135.669,29.27 134.844,32.998 109.494,32.998   "/>
		<path d="M139.629,32.979l5.035-23.889h3.652l-0.826,4.189c1.613-1.615,3.132-2.806,4.593-3.556    c1.384-0.73,2.864-1.152,4.323-1.152c1.941,0,3.518,0.558,4.633,1.615c1.113,1.057,1.652,2.44,1.652,4.189    c0,0.923-0.23,2.326-0.596,4.189l-3.229,14.414h-4.055l3.363-15.106c0.307-1.461,0.5-2.518,0.5-3.267    c0-0.789-0.328-1.422-0.865-1.923c-0.557-0.46-1.404-0.729-2.422-0.729c-2.172,0-4.055,0.768-5.728,2.229    c-1.672,1.48-2.902,4.075-3.651,7.707l-2.306,11.089H139.629L139.629,32.979z"/>
		<path d="M173.34,29.731l-0.674,3.363c-1.037,0.229-1.961,0.364-2.883,0.364c-1.613,0-2.902-0.423-3.844-1.21    c-0.73-0.576-1.096-1.422-1.096-2.421c0-0.502,0.193-1.712,0.576-3.654l2.922-13.913h-3.209l0.615-3.132h3.248l1.248-5.843    l4.67-2.806l-1.863,8.648h4.035l-0.691,3.132h-3.959l-2.787,13.223c-0.365,1.71-0.518,2.729-0.518,3.056    c0,0.461,0.152,0.808,0.422,1.096c0.289,0.27,0.691,0.364,1.346,0.364C171.82,29.999,172.609,29.904,173.34,29.731L173.34,29.731z    "/>
		<path d="M193.174,24.906l3.977,0.366c-0.557,1.979-1.883,3.882-3.92,5.612c-2.076,1.768-4.535,2.632-7.361,2.632    c-1.787,0-3.459-0.403-4.938-1.191c-1.48-0.826-2.633-2.018-3.402-3.594c-0.77-1.556-1.135-3.325-1.135-5.285    c0-2.594,0.615-5.131,1.807-7.611c1.191-2.44,2.768-4.247,4.709-5.438c1.941-1.21,4.037-1.806,6.305-1.806    c2.863,0,5.131,0.923,6.842,2.671c1.709,1.768,2.574,4.152,2.574,7.188c0,1.21-0.133,2.403-0.307,3.594h-17.719    c-0.098,0.461-0.098,0.884-0.098,1.229c0,2.287,0.5,3.979,1.52,5.189c1.037,1.192,2.324,1.749,3.842,1.749    c1.404,0,2.73-0.403,4.113-1.346C191.387,27.963,192.443,26.675,193.174,24.906L193.174,24.906z M181.238,18.911h13.568    c0-0.403,0-0.693,0-0.885c0-2.017-0.557-3.575-1.576-4.689c-1.018-1.057-2.363-1.614-3.92-1.614c-1.787,0-3.383,0.595-4.824,1.807    C183.006,14.721,181.949,16.528,181.238,18.911L181.238,18.911z"/>
		<path d="M200.4,32.979l5.035-23.889h3.65l-1.057,4.881c1.25-1.844,2.441-3.191,3.652-4.056c1.191-0.865,2.402-1.345,3.65-1.345    c0.77,0,1.787,0.327,2.998,0.884l-1.709,3.785c-0.691-0.519-1.48-0.787-2.307-0.787c-1.441,0-2.922,0.826-4.439,2.402    c-1.52,1.576-2.748,4.44-3.557,8.552l-2.037,9.571H200.4L200.4,32.979z"/>
		<path d="M214.525,42.281l6.977-33.192h3.805l-0.711,3.382c1.402-1.478,2.672-2.497,3.768-3.074    c1.135-0.558,2.268-0.828,3.537-0.828c2.268,0,4.189,0.828,5.727,2.518c1.48,1.653,2.268,4.037,2.268,7.11    c0,2.481-0.404,4.805-1.25,6.843c-0.844,2.038-1.844,3.71-3.055,4.939c-1.23,1.249-2.48,2.19-3.689,2.748    c-1.27,0.539-2.557,0.864-3.863,0.864c-2.883,0-5.094-1.422-6.67-4.401l-2.748,13.09H214.525L214.525,42.281z M222.598,23.292    c0,1.789,0.135,3.036,0.422,3.729c0.385,0.98,0.982,1.767,1.846,2.364c0.846,0.595,1.865,0.883,2.998,0.883    c2.363,0,4.268-1.287,5.766-3.94c1.461-2.633,2.191-5.303,2.191-8.091c0-2.036-0.52-3.613-1.48-4.708    c-1-1.116-2.209-1.671-3.633-1.671c-1.074,0-2.055,0.288-2.939,0.844c-0.922,0.558-1.77,1.386-2.498,2.481    c-0.75,1.114-1.402,2.421-1.922,3.977C222.828,20.737,222.598,22.12,222.598,23.292L222.598,23.292z"/>
		<path d="M241.125,32.979L246.18,9.09h3.67l-1.076,4.881c1.25-1.844,2.461-3.191,3.672-4.056c1.191-0.865,2.402-1.345,3.65-1.345    c0.789,0,1.807,0.327,3.018,0.884l-1.729,3.785c-0.674-0.519-1.461-0.787-2.307-0.787c-1.441,0-2.922,0.826-4.441,2.402    c-1.535,1.576-2.746,4.44-3.574,8.552l-2.035,9.571H241.125L241.125,32.979z"/>
		<path d="M263.283,4.612L264.246,0h4.055l-0.961,4.612H263.283L263.283,4.612z M257.346,32.979l5.016-23.889h4.055l-4.996,23.889    H257.346L257.346,32.979z"/>
		<path d="M266.359,24.791l4.133-0.249c0,1.211,0.135,2.171,0.498,2.997c0.365,0.847,1.02,1.52,2,2.02    c0.961,0.558,2.133,0.786,3.439,0.786c1.75,0,3.094-0.326,4.018-1.056c0.883-0.75,1.344-1.557,1.344-2.576    c0-0.691-0.268-1.344-0.787-1.979c-0.557-0.633-1.941-1.384-4.074-2.286c-2.133-0.941-3.518-1.557-4.133-1.98    c-1.018-0.614-1.807-1.345-2.305-2.171c-0.52-0.808-0.75-1.75-0.75-2.845c0-1.844,0.75-3.459,2.209-4.823    c1.5-1.326,3.633-2.037,6.363-2.037c2.977,0,5.285,0.711,6.859,2.095c1.576,1.364,2.365,3.21,2.461,5.458l-3.979,0.269    c-0.115-1.422-0.615-2.595-1.537-3.401c-0.961-0.826-2.326-1.288-4.074-1.288c-1.441,0-2.557,0.327-3.287,0.96    c-0.807,0.635-1.172,1.404-1.172,2.115c0,0.75,0.326,1.422,1.02,1.979c0.422,0.384,1.574,0.961,3.477,1.788    c3.115,1.346,5.057,2.401,5.9,3.17c1.289,1.25,1.922,2.787,1.922,4.518c0,1.19-0.363,2.382-1.096,3.497    c-0.729,1.152-1.844,2.076-3.344,2.71c-1.48,0.635-3.229,0.999-5.285,0.999c-2.768,0-5.092-0.635-7.033-2.017    C267.205,30.058,266.264,27.866,266.359,24.791L266.359,24.791z"/>
		<path d="M307.104,24.869l3.959,0.364c-0.559,1.979-1.883,3.863-3.92,5.594c-2.076,1.768-4.516,2.632-7.324,2.632    c-1.805,0-3.477-0.403-4.938-1.19c-1.5-0.826-2.652-2.02-3.402-3.576c-0.77-1.556-1.135-3.323-1.135-5.285    c0-2.575,0.617-5.111,1.787-7.59c1.211-2.441,2.77-4.229,4.729-5.42c1.941-1.21,4.018-1.806,6.266-1.806    c2.863,0,5.131,0.922,6.842,2.67c1.711,1.75,2.576,4.132,2.576,7.169c0,1.192-0.135,2.403-0.309,3.594h-17.682    c-0.096,0.462-0.096,0.866-0.096,1.23c0,2.269,0.5,3.959,1.52,5.151c1.018,1.211,2.305,1.748,3.842,1.748    c1.385,0,2.711-0.403,4.094-1.326C305.297,27.924,306.373,26.617,307.104,24.869L307.104,24.869z M295.188,18.891h13.529    c0-0.404,0-0.691,0-0.884c0-2.018-0.557-3.575-1.574-4.689c-1-1.038-2.346-1.595-3.922-1.595c-1.768,0-3.361,0.596-4.803,1.806    C296.957,14.702,295.879,16.508,295.188,18.891L295.188,18.891z"/>
	</g>
	<g>
		<path fill="#FFFFFF" d="M64.729,16.143h-3.94c0.174-2.73-1.458-4.113-4.976-4.113c-3.363,0-5.094,1-5.094,3.017c0,1.268,2.114,2.691,6.304,4.42    c4.248,1.769,6.362,3.958,6.362,6.689c0,4.959-3.288,7.418-9.82,7.418c-6.478,0-9.687-2.728-9.631-8.11h3.92    c-0.17,3.095,1.865,4.612,6.094,4.612c3.651,0,5.458-1.21,5.458-3.631c0-1.385-2.075-2.884-6.264-4.519    c-4.249-1.653-6.363-3.805-6.363-6.476c0-4.573,2.98-6.861,8.86-6.861C61.694,8.59,64.729,11.088,64.729,16.143L64.729,16.143z     M24.735,23.522c0,4.401,2.154,6.554,6.572,6.554c2.671,0,4.786-1.21,6.438-3.631c1.636-2.46,2.462-4.998,2.462-7.668    c0-4.498-2.114-6.747-6.303-6.747C27.75,12.03,24.735,15.875,24.735,23.522L24.735,23.522z M20.795,23.562    c0-4.056,1.209-7.593,3.671-10.57c2.422-2.941,5.667-4.401,9.686-4.401c6.667,0,9.995,3.267,9.995,9.841    c0,4.131-1.213,7.668-3.632,10.646c-2.383,2.979-5.632,4.497-9.651,4.497C24.158,33.574,20.795,30.251,20.795,23.562    L20.795,23.562z M0,33.018L6.995,0.037h3.845L6.746,19.41l12.145-10.3h5.153l-10.417,8.801l5.92,15.107h-4.422l-4.667-12.744    l-4.75,4.23L3.94,33.018H0L0,33.018z"/>
		<path fill="#312783" d="M76.242,0.036l-0.961,4.192h16.298v16.125h4.075V0.114H76.242V0.036L76.242,0.036z M67.69,8.706v24.773    l-6.535,9.014h4.458L90.022,8.801h-4.19L71.649,28.078V8.706H67.69L67.69,8.706z"/>
		<g>
			<rect x="63.449" y="11.031" fill="none" width="4.241" height="0.501"/>
		</g>
	</g>
</g>
</svg>